<svg width="23" height="23" viewBox="0 0 23 23" fill="none" xmlns="http://www.w3.org/2000/svg">
<path d="M11.499 7.8333C9.4748 7.8333 7.8333 9.4748 7.8333 11.501C7.8333 13.5271 9.4748 15.1667 11.499 15.1667C13.5233 15.1667 15.1667 13.5252 15.1667 11.501C15.1667 9.4767 13.5252 7.8333 11.499 7.8333ZM11.499 7.8333C9.4748 7.8333 7.8333 9.4748 7.8333 11.501C7.8333 13.5271 9.4748 15.1667 11.499 15.1667C13.5233 15.1667 15.1667 13.5252 15.1667 11.501C15.1667 9.4767 13.5252 7.8333 11.499 7.8333ZM22.4334 6.965C22.38 5.7939 22.1934 4.99407 21.9211 4.2952C21.6412 3.57158 21.2641 2.95841 20.6529 2.34714C20.0416 1.73397 19.4284 1.35882 18.7048 1.07699C18.0059 0.80468 17.2061 0.61997 16.035 0.56665C14.862 0.51333 14.4868 0.5 11.499 0.5C8.5113 0.5 8.138 0.51333 6.965 0.56665C5.7939 0.61997 4.99407 0.80468 4.2933 1.07699C3.56968 1.35882 2.9565 1.73397 2.34524 2.34714C1.73397 2.95841 1.35882 3.57158 1.07699 4.2952C0.80468 4.99407 0.61997 5.7939 0.56475 6.965C0.51143 8.138 0.5 8.5132 0.5 11.501C0.5 14.4887 0.51143 14.862 0.56475 16.035C0.61997 17.2061 0.80468 18.0059 1.07699 18.7048C1.35882 19.4284 1.73397 20.0416 2.34524 20.6548C2.9565 21.266 3.56968 21.6412 4.2933 21.923C4.99407 22.1953 5.7939 22.38 6.965 22.4334C8.138 22.4867 8.5113 22.5 11.499 22.5C14.4868 22.5 14.862 22.4867 16.035 22.4334C17.2061 22.38 18.0059 22.1953 18.7048 21.923C19.4284 21.6412 20.0416 21.266 20.6529 20.6548C21.2641 20.0416 21.6412 19.4284 21.9211 18.7048C22.1934 18.0059 22.38 17.2061 22.4334 16.035C22.4867 14.862 22.5 14.4868 22.5 11.501C22.5 8.5151 22.4867 8.138 22.4334 6.965ZM11.499 17.149C8.3799 17.149 5.851 14.6201 5.851 11.501C5.851 8.3818 8.3799 5.851 11.499 5.851C14.6182 5.851 17.149 8.3799 17.149 11.501C17.149 14.622 14.6182 17.149 11.499 17.149ZM17.3718 6.9478C16.6425 6.9478 16.0522 6.3575 16.0522 5.6282C16.0522 4.89886 16.6425 4.30853 17.3718 4.30853C18.1011 4.30853 18.6915 4.89886 18.6915 5.6282C18.6915 6.3575 18.1011 6.9478 17.3718 6.9478ZM11.499 7.8333C9.4748 7.8333 7.8333 9.4748 7.8333 11.501C7.8333 13.5271 9.4748 15.1667 11.499 15.1667C13.5233 15.1667 15.1667 13.5252 15.1667 11.501C15.1667 9.4767 13.5252 7.8333 11.499 7.8333Z" fill="#FCFCFD"/>
</svg>
