<svg xmlns="http://www.w3.org/2000/svg" version="1.1" xmlns:xlink="http://www.w3.org/1999/xlink" xmlns:svgjs="http://svgjs.dev/svgjs" width="1500" height="518" viewBox="0 0 1500 518"><g transform="matrix(1,0,0,1,-0.9090909090909918,-1.7732418022799266)"><svg viewBox="0 0 396 137" data-background-color="#ffffff" preserveAspectRatio="xMidYMid meet" height="518" width="1500" xmlns="http://www.w3.org/2000/svg" xmlns:xlink="http://www.w3.org/1999/xlink"><g id="tight-bounds" transform="matrix(1,0,0,1,0.2400000000000091,0.4689848009890909)"><svg viewBox="0 0 395.52 136.06203039802182" height="136.06203039802182" width="395.52"><g><svg viewBox="0 0 395.52 136.06203039802182" height="136.06203039802182" width="395.52"><g><svg viewBox="0 0 395.52 136.06203039802182" height="136.06203039802182" width="395.52"><g id="textblocktransform"><svg viewBox="0 0 395.52 136.06203039802182" height="136.06203039802182" width="395.52" id="textblock"><g><svg viewBox="0 0 395.52 75.5834045763138" height="75.5834045763138" width="395.52"><g transform="matrix(1,0,0,1,0,0)"><svg width="395.52" viewBox="2.75 -37.5 198.84 38" height="75.5834045763138" data-palette-color="url(#8c554862-1135-4ec1-8c17-618cbc79b15b)"></svg></g></svg></g><g transform="matrix(1,0,0,1,9.888000000000005,93.42683239507166)"><svg viewBox="0 0 375.74399999999997 42.63519800295018" height="42.63519800295018" width="375.74399999999997"><g transform="matrix(1,0,0,1,0,0)"><svg width="375.74399999999997" viewBox="2 -38 436.35 50" height="42.63519800295018" data-palette-color="url(#e22b442b-850e-4835-a4d5-13b6dba50637)"><g class="slogan-text-1" data-fill-palette-color="secondary" id="text-1"></g></svg></g></svg></g></svg></g></svg></g><g></g></svg></g><defs></defs><mask id="2b4b7f8f-ad90-4054-9c6b-10bf35a28137"><g id="SvgjsG3928"><svg viewBox="0 0 395.52 136.06203039802182" height="136.06203039802182" width="395.52"><g><svg viewBox="0 0 395.52 136.06203039802182" height="136.06203039802182" width="395.52"><g><svg viewBox="0 0 395.52 136.06203039802182" height="136.06203039802182" width="395.52"><g id="SvgjsG3927"><svg viewBox="0 0 395.52 136.06203039802182" height="136.06203039802182" width="395.52" id="SvgjsSvg3926"><g><svg viewBox="0 0 395.52 75.5834045763138" height="75.5834045763138" width="395.52"><g transform="matrix(1,0,0,1,0,0)"><svg width="395.52" viewBox="2.75 -37.5 198.84 38" height="75.5834045763138" data-palette-color="url(#8c554862-1135-4ec1-8c17-618cbc79b15b)"><path d="M20.65 0.5L20.65 0.5Q16.25 0.5 12.9-1.13 9.55-2.75 7.3-5.48 5.05-8.2 3.9-11.6 2.75-15 2.75-18.55L2.75-18.55Q2.75-22.1 3.9-25.48 5.05-28.85 7.3-31.55 9.55-34.25 12.9-35.88 16.25-37.5 20.65-37.5L20.65-37.5Q25.05-37.5 28.4-35.88 31.75-34.25 34-31.55 36.25-28.85 37.4-25.48 38.55-22.1 38.55-18.55L38.55-18.55Q38.55-15 37.43-11.6 36.3-8.2 34.05-5.5L34.05-5.5 39.6 0 33.4 0 30.85-2.55Q28.8-1.1 26.25-0.3 23.7 0.5 20.65 0.5ZM20.65-4.05L20.65-4.05Q22.65-4.05 24.33-4.55 26-5.05 27.4-5.95L27.4-5.95 21.5-11.8 24.7-14.8 30.6-8.95Q32.05-10.95 32.8-13.43 33.55-15.9 33.55-18.55L33.55-18.55Q33.55-21.3 32.7-23.88 31.85-26.45 30.23-28.5 28.6-30.55 26.2-31.75 23.8-32.95 20.65-32.95L20.65-32.95Q17.5-32.95 15.1-31.75 12.7-30.55 11.08-28.5 9.45-26.45 8.6-23.88 7.75-21.3 7.75-18.55L7.75-18.55Q7.75-15.75 8.6-13.15 9.45-10.55 11.08-8.5 12.7-6.45 15.1-5.25 17.5-4.05 20.65-4.05ZM59.2 0.5L59.2 0.5Q54.85 0.5 51.7-1.18 48.55-2.85 46.82-5.93 45.1-9 45.1-13.2L45.1-13.2 45.1-37 50-37 50-13.2Q50-9.35 52.27-6.75 54.55-4.15 59.2-4.15L59.2-4.15Q63.9-4.15 66.17-6.75 68.45-9.35 68.45-13.2L68.45-13.2 68.45-37 73.35-37 73.35-13.2Q73.35-9 71.62-5.93 69.9-2.85 66.75-1.18 63.6 0.5 59.2 0.5ZM86.25 0L81.34 0 81.34-37 86.25-37 86.25 0ZM99.14 0L94.24 0 94.24-37 98.64-37 117.94-8.85 117.94-37 122.84-37 122.84 0 118.44 0 99.14-28.1 99.14 0ZM145.54 0L140.64 0 140.64-32.7 129.09-32.7 129.09-37 157.09-37 157.09-32.7 145.54-32.7 145.54 0ZM168.24 0L163.34 0 163.34-37 168.24-37 168.24 0ZM188.64 0.5L188.64 0.5Q185.44 0.5 183.16-0.33 180.89-1.15 179.39-2.48 177.89-3.8 176.99-5.25 176.09-6.7 175.64-8.03 175.19-9.35 175.06-10.18 174.94-11 174.94-11L174.94-11 179.94-11Q179.94-11 180.09-10.3 180.24-9.6 180.71-8.55 181.19-7.5 182.14-6.43 183.09-5.35 184.69-4.65 186.29-3.95 188.74-3.95L188.74-3.95Q192.44-3.95 194.59-5.73 196.74-7.5 196.74-10.35L196.74-10.35Q196.74-12.8 195.11-14.15 193.49-15.5 190.49-16.25L190.49-16.25 185.59-17.45Q182.99-18.1 180.76-19.28 178.54-20.45 177.21-22.38 175.89-24.3 175.89-27.2L175.89-27.2Q175.89-30.45 177.49-32.75 179.09-35.05 181.84-36.27 184.59-37.5 188.09-37.5L188.09-37.5Q191.49-37.5 193.74-36.45 195.99-35.4 197.34-33.88 198.69-32.35 199.34-30.83 199.99-29.3 200.19-28.25 200.39-27.2 200.39-27.2L200.39-27.2 195.59-27.2Q195.59-27.2 195.39-28.1 195.19-29 194.44-30.18 193.69-31.35 192.14-32.25 190.59-33.15 187.94-33.15L187.94-33.15Q184.34-33.15 182.51-31.45 180.69-29.75 180.69-27.55L180.69-27.55Q180.69-25.55 182.14-24.33 183.59-23.1 186.14-22.45L186.14-22.45 191.44-21.15Q194.29-20.45 196.59-19.13 198.89-17.8 200.24-15.73 201.59-13.65 201.59-10.65L201.59-10.65Q201.59-7.65 200.11-5.1 198.64-2.55 195.76-1.03 192.89 0.5 188.64 0.5Z" opacity="1" transform="matrix(1,0,0,1,0,0)" fill="white" class="wordmark-text-0" id="SvgjsPath3925"></path></svg></g></svg></g><g transform="matrix(1,0,0,1,9.888000000000005,93.42683239507166)"><svg viewBox="0 0 375.74399999999997 42.63519800295018" height="42.63519800295018" width="375.74399999999997"><g transform="matrix(1,0,0,1,0,0)"><svg width="375.74399999999997" viewBox="2 -38 436.35 50" height="42.63519800295018" data-palette-color="url(#e22b442b-850e-4835-a4d5-13b6dba50637)"><g class="slogan-text-1" data-fill-palette-color="secondary" id="SvgjsG3924"><path d="M14.9-2.6L14.9 0 2 0 2-2.6 6.2-3.55 6.2-32.1 2-33.1 2-35.7 14.9-35.7 14.9-33.1 10.7-32.1 10.7-3.55 14.9-2.6ZM25.6-38L25.6 0 21.2 0 21.2-38 25.6-38ZM38.49-38L38.49 0 34.09 0 34.09-38 38.49-38ZM64.99-26.8L69.39-26.8 69.39 0 65.79 0 65.14-3.55 64.94-3.55Q64.09-2.15 62.74-1.25 61.39-0.35 59.79 0.08 58.19 0.5 56.44 0.5L56.44 0.5Q53.24 0.5 51.07-0.53 48.89-1.55 47.79-3.7 46.69-5.85 46.69-9.25L46.69-9.25 46.69-26.8 51.14-26.8 51.14-9.55Q51.14-6.35 52.59-4.75 54.04-3.15 57.09-3.15L57.09-3.15Q60.09-3.15 61.82-4.28 63.54-5.4 64.27-7.58 64.99-9.75 64.99-12.85L64.99-12.85 64.99-26.8ZM107.29-27.3L107.29-27.3Q111.84-27.3 114.09-24.98 116.34-22.65 116.34-17.45L116.34-17.45 116.34 0 111.99 0 111.99-17.25Q111.99-20.4 110.66-22 109.34-23.6 106.54-23.6L106.54-23.6Q102.64-23.6 100.97-21.35 99.29-19.1 99.29-14.8L99.29-14.8 99.29 0 94.94 0 94.94-17.25Q94.94-19.35 94.34-20.78 93.74-22.2 92.54-22.9 91.34-23.6 89.44-23.6L89.44-23.6Q86.74-23.6 85.19-22.48 83.64-21.35 82.97-19.2 82.29-17.05 82.29-13.9L82.29-13.9 82.29 0 77.89 0 77.89-26.8 81.44-26.8 82.09-23.15 82.34-23.15Q83.19-24.55 84.42-25.48 85.64-26.4 87.14-26.85 88.64-27.3 90.24-27.3L90.24-27.3Q93.34-27.3 95.42-26.2 97.49-25.1 98.44-22.8L98.44-22.8 98.69-22.8Q100.04-25.1 102.37-26.2 104.69-27.3 107.29-27.3ZM124.64-26.8L129.04-26.8 129.04 0 124.64 0 124.64-26.8ZM126.89-36.85L126.89-36.85Q127.89-36.85 128.66-36.18 129.44-35.5 129.44-34.05L129.44-34.05Q129.44-32.65 128.66-31.95 127.89-31.25 126.89-31.25L126.89-31.25Q125.79-31.25 125.04-31.95 124.29-32.65 124.29-34.05L124.29-34.05Q124.29-35.5 125.04-36.18 125.79-36.85 126.89-36.85ZM150.44-27.3L150.44-27.3Q155.24-27.3 157.69-24.98 160.13-22.65 160.13-17.45L160.13-17.45 160.13 0 155.78 0 155.78-17.15Q155.78-20.4 154.34-22 152.88-23.6 149.78-23.6L149.78-23.6Q145.34-23.6 143.63-21.1 141.94-18.6 141.94-13.9L141.94-13.9 141.94 0 137.53 0 137.53-26.8 141.09-26.8 141.73-23.15 141.98-23.15Q142.88-24.55 144.21-25.48 145.53-26.4 147.13-26.85 148.73-27.3 150.44-27.3ZM178.58-27.25L178.58-27.25Q183.48-27.25 185.83-25.1 188.18-22.95 188.18-18.25L188.18-18.25 188.18 0 184.98 0 184.13-3.8 183.93-3.8Q182.78-2.35 181.56-1.38 180.33-0.4 178.76 0.05 177.18 0.5 174.93 0.5L174.93 0.5Q172.53 0.5 170.61-0.35 168.68-1.2 167.58-2.98 166.48-4.75 166.48-7.45L166.48-7.45Q166.48-11.45 169.63-13.63 172.78-15.8 179.33-16L179.33-16 183.88-16.15 183.88-17.75Q183.88-21.1 182.43-22.4 180.98-23.7 178.33-23.7L178.33-23.7Q176.23-23.7 174.33-23.08 172.43-22.45 170.78-21.65L170.78-21.65 169.43-24.95Q171.18-25.9 173.58-26.58 175.98-27.25 178.58-27.25ZM183.83-13.1L179.88-12.95Q174.88-12.75 172.96-11.35 171.03-9.95 171.03-7.4L171.03-7.4Q171.03-5.15 172.41-4.1 173.78-3.05 175.93-3.05L175.93-3.05Q179.33-3.05 181.58-4.93 183.83-6.8 183.83-10.7L183.83-10.7 183.83-13.1ZM205.43-3.1L205.43-3.1Q206.43-3.1 207.48-3.28 208.53-3.45 209.18-3.65L209.18-3.65 209.18-0.3Q208.48 0.05 207.18 0.28 205.88 0.5 204.68 0.5L204.68 0.5Q202.58 0.5 200.81-0.23 199.03-0.95 197.93-2.75 196.83-4.55 196.83-7.8L196.83-7.8 196.83-23.4 193.03-23.4 193.03-25.5 196.88-27.25 198.63-32.95 201.23-32.95 201.23-26.8 208.98-26.8 208.98-23.4 201.23-23.4 201.23-7.9Q201.23-5.45 202.41-4.28 203.58-3.1 205.43-3.1ZM214.53-26.8L218.93-26.8 218.93 0 214.53 0 214.53-26.8ZM216.78-36.85L216.78-36.85Q217.78-36.85 218.55-36.18 219.33-35.5 219.33-34.05L219.33-34.05Q219.33-32.65 218.55-31.95 217.78-31.25 216.78-31.25L216.78-31.25Q215.68-31.25 214.93-31.95 214.18-32.65 214.18-34.05L214.18-34.05Q214.18-35.5 214.93-36.18 215.68-36.85 216.78-36.85ZM240.33-27.3L240.33-27.3Q245.13-27.3 247.58-24.98 250.03-22.65 250.03-17.45L250.03-17.45 250.03 0 245.68 0 245.68-17.15Q245.68-20.4 244.23-22 242.78-23.6 239.68-23.6L239.68-23.6Q235.23-23.6 233.53-21.1 231.83-18.6 231.83-13.9L231.83-13.9 231.83 0 227.43 0 227.43-26.8 230.98-26.8 231.63-23.15 231.88-23.15Q232.78-24.55 234.1-25.48 235.43-26.4 237.03-26.85 238.63-27.3 240.33-27.3ZM267.82-27.3L267.82-27.3Q270.47-27.3 272.6-26.3 274.72-25.3 276.22-23.25L276.22-23.25 276.47-23.25 277.07-26.8 280.57-26.8 280.57 0.45Q280.57 4.25 279.27 6.83 277.97 9.4 275.32 10.7 272.67 12 268.57 12L268.57 12Q265.67 12 263.25 11.58 260.82 11.15 258.92 10.3L258.92 10.3 258.92 6.25Q260.82 7.25 263.37 7.8 265.92 8.35 268.82 8.35L268.82 8.35Q272.27 8.35 274.25 6.33 276.22 4.3 276.22 0.8L276.22 0.8 276.22-0.25Q276.22-0.85 276.27-1.98 276.32-3.1 276.37-3.55L276.37-3.55 276.17-3.55Q274.77-1.5 272.7-0.5 270.62 0.5 267.87 0.5L267.87 0.5Q262.67 0.5 259.75-3.15 256.82-6.8 256.82-13.35L256.82-13.35Q256.82-19.75 259.75-23.53 262.67-27.3 267.82-27.3ZM268.42-23.6L268.42-23.6Q266.17-23.6 264.6-22.4 263.02-21.2 262.2-18.9 261.37-16.6 261.37-13.3L261.37-13.3Q261.37-8.35 263.2-5.73 265.02-3.1 268.52-3.1L268.52-3.1Q270.57-3.1 272.02-3.63 273.47-4.15 274.42-5.28 275.37-6.4 275.82-8.15 276.27-9.9 276.27-12.3L276.27-12.3 276.27-13.35Q276.27-17 275.45-19.25 274.62-21.5 272.87-22.55 271.12-23.6 268.42-23.6Z" fill="white"></path><path d="M309.72-31.75L309.72 0 305.22 0 305.22-31.75 294.07-31.75 294.07-35.7 320.82-35.7 320.82-31.75 309.72-31.75ZM335.77-27.25L335.77-27.25Q340.66-27.25 343.02-25.1 345.37-22.95 345.37-18.25L345.37-18.25 345.37 0 342.16 0 341.32-3.8 341.12-3.8Q339.97-2.35 338.74-1.38 337.52-0.4 335.94 0.05 334.37 0.5 332.12 0.5L332.12 0.5Q329.72 0.5 327.79-0.35 325.87-1.2 324.77-2.98 323.66-4.75 323.66-7.45L323.66-7.45Q323.66-11.45 326.82-13.63 329.97-15.8 336.52-16L336.52-16 341.07-16.15 341.07-17.75Q341.07-21.1 339.62-22.4 338.16-23.7 335.52-23.7L335.52-23.7Q333.41-23.7 331.52-23.08 329.62-22.45 327.97-21.65L327.97-21.65 326.62-24.95Q328.37-25.9 330.77-26.58 333.16-27.25 335.77-27.25ZM341.02-13.1L337.07-12.95Q332.07-12.75 330.14-11.35 328.22-9.95 328.22-7.4L328.22-7.4Q328.22-5.15 329.59-4.1 330.97-3.05 333.12-3.05L333.12-3.05Q336.52-3.05 338.77-4.93 341.02-6.8 341.02-10.7L341.02-10.7 341.02-13.1ZM358.06-38L358.06 0 353.66 0 353.66-38 358.06-38ZM376.91-27.3L376.91-27.3Q380.36-27.3 382.84-25.8 385.31-24.3 386.64-21.58 387.96-18.85 387.96-15.2L387.96-15.2 387.96-12.55 369.61-12.55Q369.71-8 371.94-5.63 374.16-3.25 378.16-3.25L378.16-3.25Q380.71-3.25 382.69-3.73 384.66-4.2 386.76-5.1L386.76-5.1 386.76-1.25Q384.71-0.35 382.71 0.08 380.71 0.5 377.96 0.5L377.96 0.5Q374.16 0.5 371.24-1.05 368.31-2.6 366.69-5.68 365.06-8.75 365.06-13.2L365.06-13.2Q365.06-17.6 366.54-20.75 368.01-23.9 370.69-25.6 373.36-27.3 376.91-27.3ZM376.86-23.7L376.86-23.7Q373.71-23.7 371.89-21.68 370.06-19.65 369.71-16.05L369.71-16.05 383.36-16.05Q383.36-18.35 382.66-20.05 381.96-21.75 380.54-22.73 379.11-23.7 376.86-23.7ZM407.66-27.3L407.66-27.3Q412.46-27.3 414.91-24.98 417.36-22.65 417.36-17.45L417.36-17.45 417.36 0 413.01 0 413.01-17.15Q413.01-20.4 411.56-22 410.11-23.6 407.01-23.6L407.01-23.6Q402.56-23.6 400.86-21.1 399.16-18.6 399.16-13.9L399.16-13.9 399.16 0 394.76 0 394.76-26.8 398.31-26.8 398.96-23.15 399.21-23.15Q400.11-24.55 401.43-25.48 402.76-26.4 404.36-26.85 405.96-27.3 407.66-27.3ZM434.6-3.1L434.6-3.1Q435.6-3.1 436.66-3.28 437.71-3.45 438.35-3.65L438.35-3.65 438.35-0.3Q437.66 0.05 436.35 0.28 435.06 0.5 433.85 0.5L433.85 0.5Q431.76 0.5 429.98-0.23 428.21-0.95 427.1-2.75 426.01-4.55 426.01-7.8L426.01-7.8 426.01-23.4 422.21-23.4 422.21-25.5 426.06-27.25 427.81-32.95 430.41-32.95 430.41-26.8 438.16-26.8 438.16-23.4 430.41-23.4 430.41-7.9Q430.41-5.45 431.58-4.28 432.76-3.1 434.6-3.1Z" fill="black"></path></g></svg></g></svg></g></svg></g></svg></g><g></g></svg></g><defs><mask></mask></defs></svg><rect width="395.52" height="136.06203039802182" fill="black" stroke="none" visibility="hidden"></rect></g></mask><linearGradient x1="0" x2="1" y1="0.578" y2="0.595" id="8c554862-1135-4ec1-8c17-618cbc79b15b"><stop stop-color="#6ee2f5" offset="0"></stop><stop stop-color="#6454f0" offset="1"></stop></linearGradient><rect width="395.52" height="136.06203039802182" fill="url(#8c554862-1135-4ec1-8c17-618cbc79b15b)" mask="url(#2b4b7f8f-ad90-4054-9c6b-10bf35a28137)" data-fill-palette-color="primary"></rect><mask id="3d16ad70-5272-4c02-a3a5-bc68b7eb89c2"><g id="SvgjsG3937"><svg viewBox="0 0 395.52 136.06203039802182" height="136.06203039802182" width="395.52"><g><svg viewBox="0 0 395.52 136.06203039802182" height="136.06203039802182" width="395.52"><g><svg viewBox="0 0 395.52 136.06203039802182" height="136.06203039802182" width="395.52"><g id="SvgjsG3936"><svg viewBox="0 0 395.52 136.06203039802182" height="136.06203039802182" width="395.52" id="SvgjsSvg3935"><g><svg viewBox="0 0 395.52 75.5834045763138" height="75.5834045763138" width="395.52"><g transform="matrix(1,0,0,1,0,0)"><svg width="395.52" viewBox="2.75 -37.5 198.84 38" height="75.5834045763138" data-palette-color="url(#8c554862-1135-4ec1-8c17-618cbc79b15b)"></svg></g></svg></g><g transform="matrix(1,0,0,1,9.888000000000005,93.42683239507166)"><svg viewBox="0 0 375.74399999999997 42.63519800295018" height="42.63519800295018" width="375.74399999999997"><g transform="matrix(1,0,0,1,0,0)"><svg width="375.74399999999997" viewBox="2 -38 436.35 50" height="42.63519800295018" data-palette-color="url(#e22b442b-850e-4835-a4d5-13b6dba50637)"><g class="slogan-text-1" data-fill-palette-color="secondary" id="SvgjsG3934"><path d="M309.72-31.75L309.72 0 305.22 0 305.22-31.75 294.07-31.75 294.07-35.7 320.82-35.7 320.82-31.75 309.72-31.75ZM335.77-27.25L335.77-27.25Q340.66-27.25 343.02-25.1 345.37-22.95 345.37-18.25L345.37-18.25 345.37 0 342.16 0 341.32-3.8 341.12-3.8Q339.97-2.35 338.74-1.38 337.52-0.4 335.94 0.05 334.37 0.5 332.12 0.5L332.12 0.5Q329.72 0.5 327.79-0.35 325.87-1.2 324.77-2.98 323.66-4.75 323.66-7.45L323.66-7.45Q323.66-11.45 326.82-13.63 329.97-15.8 336.52-16L336.52-16 341.07-16.15 341.07-17.75Q341.07-21.1 339.62-22.4 338.16-23.7 335.52-23.7L335.52-23.7Q333.41-23.7 331.52-23.08 329.62-22.45 327.97-21.65L327.97-21.65 326.62-24.95Q328.37-25.9 330.77-26.58 333.16-27.25 335.77-27.25ZM341.02-13.1L337.07-12.95Q332.07-12.75 330.14-11.35 328.22-9.95 328.22-7.4L328.22-7.4Q328.22-5.15 329.59-4.1 330.97-3.05 333.12-3.05L333.12-3.05Q336.52-3.05 338.77-4.93 341.02-6.8 341.02-10.7L341.02-10.7 341.02-13.1ZM358.06-38L358.06 0 353.66 0 353.66-38 358.06-38ZM376.91-27.3L376.91-27.3Q380.36-27.3 382.84-25.8 385.31-24.3 386.64-21.58 387.96-18.85 387.96-15.2L387.96-15.2 387.96-12.55 369.61-12.55Q369.71-8 371.94-5.63 374.16-3.25 378.16-3.25L378.16-3.25Q380.71-3.25 382.69-3.73 384.66-4.2 386.76-5.1L386.76-5.1 386.76-1.25Q384.71-0.35 382.71 0.08 380.71 0.5 377.96 0.5L377.96 0.5Q374.16 0.5 371.24-1.05 368.31-2.6 366.69-5.68 365.06-8.75 365.06-13.2L365.06-13.2Q365.06-17.6 366.54-20.75 368.01-23.9 370.69-25.6 373.36-27.3 376.91-27.3ZM376.86-23.7L376.86-23.7Q373.71-23.7 371.89-21.68 370.06-19.65 369.71-16.05L369.71-16.05 383.36-16.05Q383.36-18.35 382.66-20.05 381.96-21.75 380.54-22.73 379.11-23.7 376.86-23.7ZM407.66-27.3L407.66-27.3Q412.46-27.3 414.91-24.98 417.36-22.65 417.36-17.45L417.36-17.45 417.36 0 413.01 0 413.01-17.15Q413.01-20.4 411.56-22 410.11-23.6 407.01-23.6L407.01-23.6Q402.56-23.6 400.86-21.1 399.16-18.6 399.16-13.9L399.16-13.9 399.16 0 394.76 0 394.76-26.8 398.31-26.8 398.96-23.15 399.21-23.15Q400.11-24.55 401.43-25.48 402.76-26.4 404.36-26.85 405.96-27.3 407.66-27.3ZM434.6-3.1L434.6-3.1Q435.6-3.1 436.66-3.28 437.71-3.45 438.35-3.65L438.35-3.65 438.35-0.3Q437.66 0.05 436.35 0.28 435.06 0.5 433.85 0.5L433.85 0.5Q431.76 0.5 429.98-0.23 428.21-0.95 427.1-2.75 426.01-4.55 426.01-7.8L426.01-7.8 426.01-23.4 422.21-23.4 422.21-25.5 426.06-27.25 427.81-32.95 430.41-32.95 430.41-26.8 438.16-26.8 438.16-23.4 430.41-23.4 430.41-7.9Q430.41-5.45 431.58-4.28 432.76-3.1 434.6-3.1Z" fill="white"></path></g></svg></g></svg></g></svg></g></svg></g><g></g></svg></g><defs><mask></mask></defs><mask><g id="SvgjsG3933"><svg viewBox="0 0 395.52 136.06203039802182" height="136.06203039802182" width="395.52"><g><svg viewBox="0 0 395.52 136.06203039802182" height="136.06203039802182" width="395.52"><g><svg viewBox="0 0 395.52 136.06203039802182" height="136.06203039802182" width="395.52"><g id="SvgjsG3932"><svg viewBox="0 0 395.52 136.06203039802182" height="136.06203039802182" width="395.52" id="SvgjsSvg3931"><g><svg viewBox="0 0 395.52 75.5834045763138" height="75.5834045763138" width="395.52"><g transform="matrix(1,0,0,1,0,0)"><svg width="395.52" viewBox="2.75 -37.5 198.84 38" height="75.5834045763138" data-palette-color="url(#8c554862-1135-4ec1-8c17-618cbc79b15b)"><path d="M20.65 0.5L20.65 0.5Q16.25 0.5 12.9-1.13 9.55-2.75 7.3-5.48 5.05-8.2 3.9-11.6 2.75-15 2.75-18.55L2.75-18.55Q2.75-22.1 3.9-25.48 5.05-28.85 7.3-31.55 9.55-34.25 12.9-35.88 16.25-37.5 20.65-37.5L20.65-37.5Q25.05-37.5 28.4-35.88 31.75-34.25 34-31.55 36.25-28.85 37.4-25.48 38.55-22.1 38.55-18.55L38.55-18.55Q38.55-15 37.43-11.6 36.3-8.2 34.05-5.5L34.05-5.5 39.6 0 33.4 0 30.85-2.55Q28.8-1.1 26.25-0.3 23.7 0.5 20.65 0.5ZM20.65-4.05L20.65-4.05Q22.65-4.05 24.33-4.55 26-5.05 27.4-5.95L27.4-5.95 21.5-11.8 24.7-14.8 30.6-8.95Q32.05-10.95 32.8-13.43 33.55-15.9 33.55-18.55L33.55-18.55Q33.55-21.3 32.7-23.88 31.85-26.45 30.23-28.5 28.6-30.55 26.2-31.75 23.8-32.95 20.65-32.95L20.65-32.95Q17.5-32.95 15.1-31.75 12.7-30.55 11.08-28.5 9.45-26.45 8.6-23.88 7.75-21.3 7.75-18.55L7.75-18.55Q7.75-15.75 8.6-13.15 9.45-10.55 11.08-8.5 12.7-6.45 15.1-5.25 17.5-4.05 20.65-4.05ZM59.2 0.5L59.2 0.5Q54.85 0.5 51.7-1.18 48.55-2.85 46.82-5.93 45.1-9 45.1-13.2L45.1-13.2 45.1-37 50-37 50-13.2Q50-9.35 52.27-6.75 54.55-4.15 59.2-4.15L59.2-4.15Q63.9-4.15 66.17-6.75 68.45-9.35 68.45-13.2L68.45-13.2 68.45-37 73.35-37 73.35-13.2Q73.35-9 71.62-5.93 69.9-2.85 66.75-1.18 63.6 0.5 59.2 0.5ZM86.25 0L81.34 0 81.34-37 86.25-37 86.25 0ZM99.14 0L94.24 0 94.24-37 98.64-37 117.94-8.85 117.94-37 122.84-37 122.84 0 118.44 0 99.14-28.1 99.14 0ZM145.54 0L140.64 0 140.64-32.7 129.09-32.7 129.09-37 157.09-37 157.09-32.7 145.54-32.7 145.54 0ZM168.24 0L163.34 0 163.34-37 168.24-37 168.24 0ZM188.64 0.5L188.64 0.5Q185.44 0.5 183.16-0.33 180.89-1.15 179.39-2.48 177.89-3.8 176.99-5.25 176.09-6.7 175.64-8.03 175.19-9.35 175.06-10.18 174.94-11 174.94-11L174.94-11 179.94-11Q179.94-11 180.09-10.3 180.24-9.6 180.71-8.55 181.19-7.5 182.14-6.43 183.09-5.35 184.69-4.65 186.29-3.95 188.74-3.95L188.74-3.95Q192.44-3.95 194.59-5.73 196.74-7.5 196.74-10.35L196.74-10.35Q196.74-12.8 195.11-14.15 193.49-15.5 190.49-16.25L190.49-16.25 185.59-17.45Q182.99-18.1 180.76-19.28 178.54-20.45 177.21-22.38 175.89-24.3 175.89-27.2L175.89-27.2Q175.89-30.45 177.49-32.75 179.09-35.05 181.84-36.27 184.59-37.5 188.09-37.5L188.09-37.5Q191.49-37.5 193.74-36.45 195.99-35.4 197.34-33.88 198.69-32.35 199.34-30.83 199.99-29.3 200.19-28.25 200.39-27.2 200.39-27.2L200.39-27.2 195.59-27.2Q195.59-27.2 195.39-28.1 195.19-29 194.44-30.18 193.69-31.35 192.14-32.25 190.59-33.15 187.94-33.15L187.94-33.15Q184.34-33.15 182.51-31.45 180.69-29.75 180.69-27.55L180.69-27.55Q180.69-25.55 182.14-24.33 183.59-23.1 186.14-22.45L186.14-22.45 191.44-21.15Q194.29-20.45 196.59-19.13 198.89-17.8 200.24-15.73 201.59-13.65 201.59-10.65L201.59-10.65Q201.59-7.65 200.11-5.1 198.64-2.55 195.76-1.03 192.89 0.5 188.64 0.5Z" opacity="1" transform="matrix(1,0,0,1,0,0)" fill="black" class="wordmark-text-0" id="SvgjsPath3930"></path></svg></g></svg></g><g transform="matrix(1,0,0,1,9.888000000000005,93.42683239507166)"><svg viewBox="0 0 375.74399999999997 42.63519800295018" height="42.63519800295018" width="375.74399999999997"><g transform="matrix(1,0,0,1,0,0)"><svg width="375.74399999999997" viewBox="2 -38 436.35 50" height="42.63519800295018" data-palette-color="url(#e22b442b-850e-4835-a4d5-13b6dba50637)"><g class="slogan-text-1" data-fill-palette-color="secondary" id="SvgjsG3929"><path d="M14.9-2.6L14.9 0 2 0 2-2.6 6.2-3.55 6.2-32.1 2-33.1 2-35.7 14.9-35.7 14.9-33.1 10.7-32.1 10.7-3.55 14.9-2.6ZM25.6-38L25.6 0 21.2 0 21.2-38 25.6-38ZM38.49-38L38.49 0 34.09 0 34.09-38 38.49-38ZM64.99-26.8L69.39-26.8 69.39 0 65.79 0 65.14-3.55 64.94-3.55Q64.09-2.15 62.74-1.25 61.39-0.35 59.79 0.08 58.19 0.5 56.44 0.5L56.44 0.5Q53.24 0.5 51.07-0.53 48.89-1.55 47.79-3.7 46.69-5.85 46.69-9.25L46.69-9.25 46.69-26.8 51.14-26.8 51.14-9.55Q51.14-6.35 52.59-4.75 54.04-3.15 57.09-3.15L57.09-3.15Q60.09-3.15 61.82-4.28 63.54-5.4 64.27-7.58 64.99-9.75 64.99-12.85L64.99-12.85 64.99-26.8ZM107.29-27.3L107.29-27.3Q111.84-27.3 114.09-24.98 116.34-22.65 116.34-17.45L116.34-17.45 116.34 0 111.99 0 111.99-17.25Q111.99-20.4 110.66-22 109.34-23.6 106.54-23.6L106.54-23.6Q102.64-23.6 100.97-21.35 99.29-19.1 99.29-14.8L99.29-14.8 99.29 0 94.94 0 94.94-17.25Q94.94-19.35 94.34-20.78 93.74-22.2 92.54-22.9 91.34-23.6 89.44-23.6L89.44-23.6Q86.74-23.6 85.19-22.48 83.64-21.35 82.97-19.2 82.29-17.05 82.29-13.9L82.29-13.9 82.29 0 77.89 0 77.89-26.8 81.44-26.8 82.09-23.15 82.34-23.15Q83.19-24.55 84.42-25.48 85.64-26.4 87.14-26.85 88.64-27.3 90.24-27.3L90.24-27.3Q93.34-27.3 95.42-26.2 97.49-25.1 98.44-22.8L98.44-22.8 98.69-22.8Q100.04-25.1 102.37-26.2 104.69-27.3 107.29-27.3ZM124.64-26.8L129.04-26.8 129.04 0 124.64 0 124.64-26.8ZM126.89-36.85L126.89-36.85Q127.89-36.85 128.66-36.18 129.44-35.5 129.44-34.05L129.44-34.05Q129.44-32.65 128.66-31.95 127.89-31.25 126.89-31.25L126.89-31.25Q125.79-31.25 125.04-31.95 124.29-32.65 124.29-34.05L124.29-34.05Q124.29-35.5 125.04-36.18 125.79-36.85 126.89-36.85ZM150.44-27.3L150.44-27.3Q155.24-27.3 157.69-24.98 160.13-22.65 160.13-17.45L160.13-17.45 160.13 0 155.78 0 155.78-17.15Q155.78-20.4 154.34-22 152.88-23.6 149.78-23.6L149.78-23.6Q145.34-23.6 143.63-21.1 141.94-18.6 141.94-13.9L141.94-13.9 141.94 0 137.53 0 137.53-26.8 141.09-26.8 141.73-23.15 141.98-23.15Q142.88-24.55 144.21-25.48 145.53-26.4 147.13-26.85 148.73-27.3 150.44-27.3ZM178.58-27.25L178.58-27.25Q183.48-27.25 185.83-25.1 188.18-22.95 188.18-18.25L188.18-18.25 188.18 0 184.98 0 184.13-3.8 183.93-3.8Q182.78-2.35 181.56-1.38 180.33-0.4 178.76 0.05 177.18 0.5 174.93 0.5L174.93 0.5Q172.53 0.5 170.61-0.35 168.68-1.2 167.58-2.98 166.48-4.75 166.48-7.45L166.48-7.45Q166.48-11.45 169.63-13.63 172.78-15.8 179.33-16L179.33-16 183.88-16.15 183.88-17.75Q183.88-21.1 182.43-22.4 180.98-23.7 178.33-23.7L178.33-23.7Q176.23-23.7 174.33-23.08 172.43-22.45 170.78-21.65L170.78-21.65 169.43-24.95Q171.18-25.9 173.58-26.58 175.98-27.25 178.58-27.25ZM183.83-13.1L179.88-12.95Q174.88-12.75 172.96-11.35 171.03-9.95 171.03-7.4L171.03-7.4Q171.03-5.15 172.41-4.1 173.78-3.05 175.93-3.05L175.93-3.05Q179.33-3.05 181.58-4.93 183.83-6.8 183.83-10.7L183.83-10.7 183.83-13.1ZM205.43-3.1L205.43-3.1Q206.43-3.1 207.48-3.28 208.53-3.45 209.18-3.65L209.18-3.65 209.18-0.3Q208.48 0.05 207.18 0.28 205.88 0.5 204.68 0.5L204.68 0.5Q202.58 0.5 200.81-0.23 199.03-0.95 197.93-2.75 196.83-4.55 196.83-7.8L196.83-7.8 196.83-23.4 193.03-23.4 193.03-25.5 196.88-27.25 198.63-32.95 201.23-32.95 201.23-26.8 208.98-26.8 208.98-23.4 201.23-23.4 201.23-7.9Q201.23-5.45 202.41-4.28 203.58-3.1 205.43-3.1ZM214.53-26.8L218.93-26.8 218.93 0 214.53 0 214.53-26.8ZM216.78-36.85L216.78-36.85Q217.78-36.85 218.55-36.18 219.33-35.5 219.33-34.05L219.33-34.05Q219.33-32.65 218.55-31.95 217.78-31.25 216.78-31.25L216.78-31.25Q215.68-31.25 214.93-31.95 214.18-32.65 214.18-34.05L214.18-34.05Q214.18-35.5 214.93-36.18 215.68-36.85 216.78-36.85ZM240.33-27.3L240.33-27.3Q245.13-27.3 247.58-24.98 250.03-22.65 250.03-17.45L250.03-17.45 250.03 0 245.68 0 245.68-17.15Q245.68-20.4 244.23-22 242.78-23.6 239.68-23.6L239.68-23.6Q235.23-23.6 233.53-21.1 231.83-18.6 231.83-13.9L231.83-13.9 231.83 0 227.43 0 227.43-26.8 230.98-26.8 231.63-23.15 231.88-23.15Q232.78-24.55 234.1-25.48 235.43-26.4 237.03-26.85 238.63-27.3 240.33-27.3ZM267.82-27.3L267.82-27.3Q270.47-27.3 272.6-26.3 274.72-25.3 276.22-23.25L276.22-23.25 276.47-23.25 277.07-26.8 280.57-26.8 280.57 0.45Q280.57 4.25 279.27 6.83 277.97 9.4 275.32 10.7 272.67 12 268.57 12L268.57 12Q265.67 12 263.25 11.58 260.82 11.15 258.92 10.3L258.92 10.3 258.92 6.25Q260.82 7.25 263.37 7.8 265.92 8.35 268.82 8.35L268.82 8.35Q272.27 8.35 274.25 6.33 276.22 4.3 276.22 0.8L276.22 0.8 276.22-0.25Q276.22-0.85 276.27-1.98 276.32-3.1 276.37-3.55L276.37-3.55 276.17-3.55Q274.77-1.5 272.7-0.5 270.62 0.5 267.87 0.5L267.87 0.5Q262.67 0.5 259.75-3.15 256.82-6.8 256.82-13.35L256.82-13.35Q256.82-19.75 259.75-23.53 262.67-27.3 267.82-27.3ZM268.42-23.6L268.42-23.6Q266.17-23.6 264.6-22.4 263.02-21.2 262.2-18.9 261.37-16.6 261.37-13.3L261.37-13.3Q261.37-8.35 263.2-5.73 265.02-3.1 268.52-3.1L268.52-3.1Q270.57-3.1 272.02-3.63 273.47-4.15 274.42-5.28 275.37-6.4 275.82-8.15 276.27-9.9 276.27-12.3L276.27-12.3 276.27-13.35Q276.27-17 275.45-19.25 274.62-21.5 272.87-22.55 271.12-23.6 268.42-23.6Z" fill="black"></path><path d="M309.72-31.75L309.72 0 305.22 0 305.22-31.75 294.07-31.75 294.07-35.7 320.82-35.7 320.82-31.75 309.72-31.75ZM335.77-27.25L335.77-27.25Q340.66-27.25 343.02-25.1 345.37-22.95 345.37-18.25L345.37-18.25 345.37 0 342.16 0 341.32-3.8 341.12-3.8Q339.97-2.35 338.74-1.38 337.52-0.4 335.94 0.05 334.37 0.5 332.12 0.5L332.12 0.5Q329.72 0.5 327.79-0.35 325.87-1.2 324.77-2.98 323.66-4.75 323.66-7.45L323.66-7.45Q323.66-11.45 326.82-13.63 329.97-15.8 336.52-16L336.52-16 341.07-16.15 341.07-17.75Q341.07-21.1 339.62-22.4 338.16-23.7 335.52-23.7L335.52-23.7Q333.41-23.7 331.52-23.08 329.62-22.45 327.97-21.65L327.97-21.65 326.62-24.95Q328.37-25.9 330.77-26.58 333.16-27.25 335.77-27.25ZM341.02-13.1L337.07-12.95Q332.07-12.75 330.14-11.35 328.22-9.95 328.22-7.4L328.22-7.4Q328.22-5.15 329.59-4.1 330.97-3.05 333.12-3.05L333.12-3.05Q336.52-3.05 338.77-4.93 341.02-6.8 341.02-10.7L341.02-10.7 341.02-13.1ZM358.06-38L358.06 0 353.66 0 353.66-38 358.06-38ZM376.91-27.3L376.91-27.3Q380.36-27.3 382.84-25.8 385.31-24.3 386.64-21.58 387.96-18.85 387.96-15.2L387.96-15.2 387.96-12.55 369.61-12.55Q369.71-8 371.94-5.63 374.16-3.25 378.16-3.25L378.16-3.25Q380.71-3.25 382.69-3.73 384.66-4.2 386.76-5.1L386.76-5.1 386.76-1.25Q384.71-0.35 382.71 0.08 380.71 0.5 377.96 0.5L377.96 0.5Q374.16 0.5 371.24-1.05 368.31-2.6 366.69-5.68 365.06-8.75 365.06-13.2L365.06-13.2Q365.06-17.6 366.54-20.75 368.01-23.9 370.69-25.6 373.36-27.3 376.91-27.3ZM376.86-23.7L376.86-23.7Q373.71-23.7 371.89-21.68 370.06-19.65 369.71-16.05L369.71-16.05 383.36-16.05Q383.36-18.35 382.66-20.05 381.96-21.75 380.54-22.73 379.11-23.7 376.86-23.7ZM407.66-27.3L407.66-27.3Q412.46-27.3 414.91-24.98 417.36-22.65 417.36-17.45L417.36-17.45 417.36 0 413.01 0 413.01-17.15Q413.01-20.4 411.56-22 410.11-23.6 407.01-23.6L407.01-23.6Q402.56-23.6 400.86-21.1 399.16-18.6 399.16-13.9L399.16-13.9 399.16 0 394.76 0 394.76-26.8 398.31-26.8 398.96-23.15 399.21-23.15Q400.11-24.55 401.43-25.48 402.76-26.4 404.36-26.85 405.96-27.3 407.66-27.3ZM434.6-3.1L434.6-3.1Q435.6-3.1 436.66-3.28 437.71-3.45 438.35-3.65L438.35-3.65 438.35-0.3Q437.66 0.05 436.35 0.28 435.06 0.5 433.85 0.5L433.85 0.5Q431.76 0.5 429.98-0.23 428.21-0.95 427.1-2.75 426.01-4.55 426.01-7.8L426.01-7.8 426.01-23.4 422.21-23.4 422.21-25.5 426.06-27.25 427.81-32.95 430.41-32.95 430.41-26.8 438.16-26.8 438.16-23.4 430.41-23.4 430.41-7.9Q430.41-5.45 431.58-4.28 432.76-3.1 434.6-3.1Z" fill="black"></path></g></svg></g></svg></g></svg></g></svg></g><g></g></svg></g><defs><mask></mask></defs></svg><rect width="395.52" height="136.06203039802182" fill="black" stroke="none" visibility="hidden"></rect></g></mask></svg><rect width="395.52" height="136.06203039802182" fill="black" stroke="none" visibility="hidden"></rect></g></mask><linearGradient x1="0" x2="1" y1="0.578" y2="0.595" id="e22b442b-850e-4835-a4d5-13b6dba50637"><stop stop-color="#6ee2f5" offset="0"></stop><stop stop-color="#6454f0" offset="1"></stop></linearGradient><rect width="395.52" height="136.06203039802182" fill="url(#e22b442b-850e-4835-a4d5-13b6dba50637)" mask="url(#3d16ad70-5272-4c02-a3a5-bc68b7eb89c2)" data-fill-palette-color="secondary"></rect></svg><rect width="395.52" height="136.06203039802182" fill="none" stroke="none" visibility="hidden"></rect></g></svg></g></svg>