<svg width="78" height="23" viewBox="0 0 78 23" fill="none" xmlns="http://www.w3.org/2000/svg">
<path d="M5.10638 21.1866L0 3.03799H2.39362L6.40957 18.5976L10.984 3.03799H13.4574L17.8989 18.5976L21.9681 3.03799H24.3617L19.1489 21.1607H16.5957L12.1543 6.19651L7.60638 21.1607L5.10638 21.1866Z" fill="#070D0B"/>
<path d="M31.5164 21.4713C30.2752 21.4713 29.1582 21.1952 28.1653 20.6429C27.1724 20.0906 26.3834 19.3139 25.7983 18.3128C25.2309 17.2945 24.9472 16.1036 24.9472 14.7401C24.9472 13.3765 25.2398 12.1943 25.8249 11.1932C26.41 10.1749 27.199 9.38955 28.1919 8.83724C29.2025 8.28493 30.3284 8.00878 31.5696 8.00878C32.8107 8.00878 33.9277 8.28493 34.9206 8.83724C35.9135 9.38955 36.6937 10.1749 37.2611 11.1932C37.8462 12.1943 38.1387 13.3765 38.1387 14.7401C38.1387 16.1036 37.8462 17.2945 37.2611 18.3128C36.6759 19.3139 35.8781 20.0906 34.8674 20.6429C33.8745 21.1952 32.7575 21.4713 31.5164 21.4713ZM31.5164 19.6073C32.2788 19.6073 32.988 19.4261 33.644 19.0636C34.3001 18.7012 34.832 18.1575 35.2398 17.4326C35.6476 16.7077 35.8515 15.8102 35.8515 14.7401C35.8515 13.67 35.6476 12.7725 35.2398 12.0475C34.8497 11.3226 34.3267 10.779 33.6706 10.4165C33.0146 10.0541 32.3142 9.87283 31.5696 9.87283C30.8071 9.87283 30.0979 10.0541 29.4419 10.4165C28.7859 10.779 28.254 11.3226 27.8462 12.0475C27.4384 12.7725 27.2345 13.67 27.2345 14.7401C27.2345 15.8102 27.4384 16.7077 27.8462 17.4326C28.254 18.1575 28.777 18.7012 29.4153 19.0636C30.0713 19.4261 30.7717 19.6073 31.5164 19.6073Z" fill="#070D0B"/>
<path d="M41.245 21.1607V8.31945H43.2663L43.4525 10.779C43.8603 9.93323 44.4808 9.26011 45.3142 8.75957C46.1475 8.25904 47.1759 8.00878 48.3993 8.00878V10.2871H47.7876C47.0074 10.2871 46.2893 10.4251 45.6333 10.7013C44.9773 10.9602 44.4542 11.4089 44.0642 12.0475C43.6741 12.6862 43.4791 13.5664 43.4791 14.6883V21.1607H41.245Z" fill="#070D0B"/>
<path d="M50.9067 21.1607V2.5202H53.1408V13.7304L58.5397 8.31945H61.2791L55.428 14.1187L62.0238 21.1607H59.178L53.1408 14.5071V21.1607H50.9067Z" fill="#070D0B"/>
<path d="M73.1144 22.9911C72.2172 22.9341 71.5346 22.7632 71.0665 22.4784C70.5984 22.2126 70.3644 21.8709 70.3644 21.4532C70.3644 21.3393 70.3741 21.1305 70.3936 20.8267C70.4326 20.5419 70.5009 20.0957 70.5984 19.4882C70.7154 18.8617 70.8715 18.0168 71.0665 16.9536C71.164 16.5549 71.2615 16.0898 71.359 15.5582C71.4566 15.0076 71.5541 14.476 71.6516 13.9634C71.2615 13.9254 70.8617 13.8969 70.4521 13.8779C70.0425 13.859 69.7597 13.8495 69.6037 13.8495C69.4087 13.8495 69.0869 13.859 68.6383 13.8779C68.1897 13.8969 67.6826 13.9254 67.117 13.9634C66.5514 13.9824 65.9858 14.0203 65.4202 14.0773C64.8741 14.1153 64.3963 14.1627 63.9867 14.2197C63.5966 14.2577 63.3431 14.3051 63.2261 14.3621C63.2261 13.8684 63.3723 13.4508 63.6649 13.109C63.9574 12.7673 64.2988 12.416 64.6888 12.0553C65.391 11.4288 66.2394 10.6504 67.234 9.72008C68.2482 8.77079 69.3209 7.74557 70.4521 6.6444C71.5833 5.54323 72.6658 4.42308 73.6995 3.28394C74.7332 2.12581 75.6303 1.03414 76.391 0.00891113C76.547 0.0848539 76.703 0.198768 76.859 0.350654C77.0346 0.483553 77.1223 0.701887 77.1223 1.00566C77.1223 1.46131 76.9273 1.98342 76.5372 2.57197C76.4397 3.00864 76.2934 3.68264 76.0984 4.59395C75.9034 5.50526 75.6791 6.60643 75.4255 7.89745C75.172 9.16949 74.8989 10.5649 74.6064 12.0838C74.6844 12.0838 74.7624 12.0838 74.8404 12.0838C74.9184 12.0838 74.9867 12.0838 75.0452 12.0838C75.7863 12.0838 76.3519 12.0648 76.742 12.0268C77.1516 11.9699 77.5709 11.8844 78 11.7705C77.5319 12.3971 76.9858 12.9192 76.3617 13.3368C75.7376 13.7355 75.1037 13.9539 74.4601 13.9918C74.4406 13.9918 74.4113 13.9918 74.3723 13.9918C74.3333 13.9918 74.2943 13.9918 74.2553 13.9918C74.2358 14.0488 74.2066 14.2007 74.1675 14.4475C74.1285 14.6753 74.0798 14.9791 74.0213 15.3588C73.9433 15.8714 73.8457 16.4695 73.7287 17.153C73.6312 17.8175 73.5337 18.5104 73.4362 19.2319C73.3386 19.9533 73.2606 20.6463 73.2021 21.3108C73.1436 21.9753 73.1144 22.5354 73.1144 22.9911ZM66.6197 12.0268C67.0097 11.9889 67.4193 11.9699 67.8484 11.9699C68.2775 11.9509 68.7456 11.9414 69.2527 11.9414C69.7597 11.9414 70.2473 11.9509 70.7154 11.9699C71.203 11.9699 71.6613 11.9794 72.0904 11.9984C72.344 10.8402 72.5878 9.73906 72.8218 8.69485C73.0753 7.65064 73.3484 6.66338 73.641 5.73309C73.0558 6.26469 72.4317 6.81527 71.7686 7.38484C71.125 7.95441 70.4814 8.52398 69.8378 9.09355C69.1941 9.66312 68.57 10.2137 67.9654 10.7453C67.7314 10.9731 67.4973 11.1915 67.2633 11.4003C67.0488 11.6091 66.8342 11.818 66.6197 12.0268Z" fill="#00DF8F"/>
</svg>
